<svg width="16" height="17" viewBox="0 0 16 17" fill="none" xmlns="http://www.w3.org/2000/svg">
<path d="M6.67969 13.7461C7.44792 13.7461 8.18034 13.6224 8.87695 13.375C9.57357 13.1276 10.2018 12.7826 10.7617 12.3398L14.4141 16.0117L15.5859 14.8203L11.9336 11.168C12.3763 10.6081 12.7214 9.97982 12.9688 9.2832C13.2161 8.58659 13.3398 7.85417 13.3398 7.08594C13.3398 6.16146 13.1641 5.29557 12.8125 4.48828C12.4609 3.68099 11.9857 2.97461 11.3867 2.36914C10.7878 1.76367 10.0781 1.28516 9.25781 0.933594C8.45052 0.595052 7.59115 0.425781 6.67969 0.425781C5.75521 0.425781 4.88932 0.595052 4.08203 0.933594C3.27474 1.28516 2.56836 1.76367 1.96289 2.36914C1.35742 2.97461 0.878906 3.68099 0.527344 4.48828C0.175781 5.29557 0 6.16146 0 7.08594C0 7.9974 0.175781 8.86328 0.527344 9.68359C0.878906 10.4909 1.35742 11.194 1.96289 11.793C2.56836 12.3919 3.27474 12.8672 4.08203 13.2188C4.88932 13.5703 5.75521 13.7461 6.67969 13.7461ZM6.67969 2.08594C7.36979 2.08594 8.01432 2.21615 8.61328 2.47656C9.22526 2.73698 9.75586 3.09505 10.2051 3.55078C10.6543 4.00651 11.0156 4.53385 11.2891 5.13281C11.5495 5.74479 11.6797 6.39583 11.6797 7.08594C11.6797 7.77604 11.5495 8.42057 11.2891 9.01953C11.0156 9.63151 10.6543 10.1654 10.2051 10.6211C9.75586 11.0768 9.22526 11.4349 8.61328 11.6953C8.01432 11.9557 7.36979 12.0859 6.67969 12.0859C5.98958 12.0859 5.33854 11.9557 4.72656 11.6953C4.11458 11.4349 3.58398 11.0768 3.13477 10.6211C2.68555 10.1654 2.33073 9.63151 2.07031 9.01953C1.8099 8.42057 1.67969 7.77604 1.67969 7.08594C1.67969 6.39583 1.8099 5.74479 2.07031 5.13281C2.33073 4.53385 2.68555 4.00651 3.13477 3.55078C3.58398 3.09505 4.11458 2.73698 4.72656 2.47656C5.33854 2.21615 5.98958 2.08594 6.67969 2.08594Z" fill="#382A34"/>
</svg>
