<svg width="15" height="18" viewBox="0 0 15 18" fill="none" xmlns="http://www.w3.org/2000/svg">
<path d="M1.66016 17.0859H13.3398C13.7956 17.0859 14.1862 16.9232 14.5117 16.5977C14.8372 16.2721 15 15.8815 15 15.4258V7.92578C15 7.91276 15 7.90625 15 7.90625C15 7.78906 14.9772 7.68164 14.9316 7.58398C14.8861 7.48633 14.8307 7.39844 14.7656 7.32031L8.08594 0.660156C8.02083 0.582031 7.9362 0.523438 7.83203 0.484375C7.72786 0.445312 7.61719 0.425781 7.5 0.425781C7.38281 0.425781 7.27539 0.445312 7.17773 0.484375C7.08008 0.523438 6.99219 0.582031 6.91406 0.660156L0.253906 7.32031C0.175781 7.39844 0.113932 7.48958 0.0683594 7.59375C0.0227865 7.69792 0 7.80859 0 7.92578V15.4258C0 15.8815 0.16276 16.2721 0.488281 16.5977C0.813802 16.9232 1.20443 17.0859 1.66016 17.0859ZM5.83984 15.4258V11.2461H9.16016V15.4258H5.83984ZM1.66016 8.25781L7.5 2.41797L13.3398 8.25781V15.4258H10.8398V11.2461C10.8398 10.7904 10.6771 10.3997 10.3516 10.0742C10.026 9.7487 9.62891 9.58594 9.16016 9.58594H5.83984C5.37109 9.58594 4.97396 9.7487 4.64844 10.0742C4.32292 10.3997 4.16016 10.7904 4.16016 11.2461V15.4258H1.66016V8.25781Z" fill="#382A34"/>
</svg>
