<svg width="20" height="20" viewBox="0 0 20 20" fill="none" xmlns="http://www.w3.org/2000/svg">
<path d="M15.8398 4.74609H14.1797L13.1055 3.69141C12.9232 3.50911 12.7083 3.36263 12.4609 3.25195C12.2135 3.14128 11.9531 3.08594 11.6797 3.08594H9.58984C9.47266 2.60417 9.222 2.20703 8.83789 1.89453C8.45378 1.58203 8.00781 1.42578 7.5 1.42578V6.71875C7.52604 7.16146 7.6237 7.57487 7.79297 7.95898C7.96224 8.3431 8.18359 8.6849 8.45703 8.98438C8.89974 9.41406 9.41406 9.76237 10 10.0293C10.5859 10.2962 11.2109 10.4557 11.875 10.5078H11.8945L14.7656 9.35547C15.1042 9.21224 15.4004 9.00716 15.6543 8.74023C15.9082 8.47331 16.0938 8.17057 16.2109 7.83203V7.8125L16.6797 6.54297C16.6797 6.51693 16.6797 6.49414 16.6797 6.47461C16.6797 6.45508 16.6797 6.43229 16.6797 6.40625C16.6797 6.39323 16.6797 6.3737 16.6797 6.34766C16.6797 6.32161 16.6797 6.29557 16.6797 6.26953V6.28906V5.58594C16.6797 5.35156 16.5983 5.153 16.4355 4.99023C16.2728 4.82747 16.0742 4.74609 15.8398 4.74609ZM11.6797 6.42578C11.4453 6.42578 11.2467 6.3444 11.084 6.18164C10.9212 6.01888 10.8398 5.82031 10.8398 5.58594C10.8398 5.35156 10.9212 5.153 11.084 4.99023C11.2467 4.82747 11.4453 4.74609 11.6797 4.74609C11.901 4.74609 12.0931 4.82747 12.2559 4.99023C12.4186 5.153 12.5 5.35156 12.5 5.58594C12.5 5.82031 12.4186 6.01888 12.2559 6.18164C12.0931 6.3444 11.901 6.42578 11.6797 6.42578ZM7.83203 9.53125C7.54557 9.23177 7.30794 8.88997 7.11914 8.50586C6.93034 8.12175 6.80339 7.70833 6.73828 7.26562V7.24609H3.33984C3.32682 7.24609 3.31055 7.24609 3.29102 7.24609C3.27148 7.24609 3.25521 7.24609 3.24219 7.24609C2.79948 7.24609 2.42513 7.0931 2.11914 6.78711C1.81315 6.48112 1.66016 6.11328 1.66016 5.68359C1.66016 5.67057 1.66341 5.6543 1.66992 5.63477C1.67643 5.61523 1.67969 5.59896 1.67969 5.58594C1.67969 5.35156 1.59831 5.153 1.43555 4.99023C1.27279 4.82747 1.07422 4.74609 0.839844 4.74609C0.605469 4.74609 0.406901 4.82747 0.244141 4.99023C0.0813802 5.153 0 5.35156 0 5.58594C0.0130208 5.88542 0.0553385 6.17839 0.126953 6.46484C0.198568 6.7513 0.292969 7.01823 0.410156 7.26562V7.24609C0.553385 7.51953 0.732422 7.76367 0.947266 7.97852C1.16211 8.19336 1.39974 8.3724 1.66016 8.51562H1.67969V18.0859H4.17969V13.9258H9.17969V18.0859H11.6797V11.3086C10.9245 11.2435 10.2181 11.0547 9.56055 10.7422C8.903 10.4297 8.32682 10.026 7.83203 9.53125Z" fill="#382A34"/>
</svg>
