<svg width="20" height="20" viewBox="0 0 20 20" fill="none" xmlns="http://www.w3.org/2000/svg">
<path d="M12.168 8.96484C12.3763 8.61328 12.5391 8.23568 12.6562 7.83203C12.7734 7.42839 12.832 7.00521 12.832 6.5625C12.832 6.48438 12.8288 6.403 12.8223 6.31836C12.8158 6.23372 12.806 6.15234 12.793 6.07422V6.09375C12.7279 5.35156 12.4935 4.66146 12.0898 4.02344C11.6862 3.38542 11.1458 2.83854 10.4688 2.38281L9.55078 3.76953C10.0195 4.08203 10.3906 4.45312 10.6641 4.88281C10.9375 5.3125 11.1003 5.76823 11.1523 6.25C11.1523 6.30208 11.1523 6.35417 11.1523 6.40625C11.1523 6.45833 11.1523 6.51042 11.1523 6.5625C11.1523 6.99219 11.071 7.39258 10.9082 7.76367C10.7454 8.13477 10.5273 8.46354 10.2539 8.75L9.25781 9.74609L10.6055 10.1367C11.4909 10.3971 12.1745 10.7812 12.6562 11.2891C13.138 11.7969 13.4896 12.3047 13.7109 12.8125C13.9323 13.3203 14.069 13.7695 14.1211 14.1602C14.1602 14.5508 14.1797 14.7461 14.1797 14.7461H15.8398C15.8398 14.3815 15.7812 13.9388 15.6641 13.418C15.5599 12.8971 15.3678 12.3633 15.0879 11.8164C14.8079 11.2695 14.4336 10.7422 13.9648 10.2344C13.4831 9.72656 12.8841 9.30339 12.168 8.96484ZM6.25 9.74609C7.17448 9.74609 7.96224 9.42057 8.61328 8.76953C9.26432 8.11849 9.58984 7.33724 9.58984 6.42578C9.58984 5.5013 9.26432 4.71354 8.61328 4.0625C7.96224 3.41146 7.17448 3.08594 6.25 3.08594C5.33854 3.08594 4.55729 3.41146 3.90625 4.0625C3.25521 4.71354 2.92969 5.5013 2.92969 6.42578C2.92969 7.33724 3.25521 8.11849 3.90625 8.76953C4.55729 9.42057 5.33854 9.74609 6.25 9.74609ZM6.25 4.74609C6.71875 4.74609 7.11589 4.90885 7.44141 5.23438C7.76693 5.5599 7.92969 5.95703 7.92969 6.42578C7.92969 6.88151 7.76693 7.27214 7.44141 7.59766C7.11589 7.92318 6.71875 8.08594 6.25 8.08594C5.79427 8.08594 5.40365 7.92318 5.07812 7.59766C4.7526 7.27214 4.58984 6.88151 4.58984 6.42578C4.58984 5.95703 4.7526 5.5599 5.07812 5.23438C5.40365 4.90885 5.79427 4.74609 6.25 4.74609ZM7.5 10.5859H5C4.3099 10.5859 3.66536 10.7161 3.06641 10.9766C2.45443 11.237 1.92383 11.5951 1.47461 12.0508C1.02539 12.5065 0.664062 13.0339 0.390625 13.6328C0.130208 14.2448 0 14.8958 0 15.5859V16.4258H1.67969V15.5859C1.67969 14.6615 2.00521 13.8737 2.65625 13.2227C3.30729 12.5716 4.08854 12.2461 5 12.2461H7.5C8.42448 12.2461 9.21224 12.5716 9.86328 13.2227C10.5143 13.8737 10.8398 14.6615 10.8398 15.5859V16.4258H12.5V15.5859C12.5 14.8958 12.3698 14.2448 12.1094 13.6328C11.849 13.0339 11.4941 12.5065 11.0449 12.0508C10.5957 11.5951 10.0651 11.237 9.45312 10.9766C8.84115 10.7161 8.1901 10.5859 7.5 10.5859Z" fill="#382A34"/>
</svg>
