<svg width="20" height="20" viewBox="0 0 20 20" fill="none" xmlns="http://www.w3.org/2000/svg">
<path d="M15.8398 2.24609H10C9.6875 2.24609 9.38802 2.30469 9.10156 2.42188C8.8151 2.53906 8.5612 2.70182 8.33984 2.91016V2.89062C8.11849 2.69531 7.86458 2.53906 7.57812 2.42188C7.29167 2.30469 6.99219 2.24609 6.67969 2.24609H0.839844C0.605469 2.24609 0.406901 2.32747 0.244141 2.49023C0.0813802 2.653 0 2.85156 0 3.08594V15.5859C0 15.8203 0.0813802 16.0189 0.244141 16.1816C0.406901 16.3444 0.605469 16.4258 0.839844 16.4258H5.64453C5.86589 16.4258 6.07747 16.4681 6.2793 16.5527C6.48112 16.6374 6.66016 16.7578 6.81641 16.9141L7.75391 17.832C7.75391 17.8451 7.75716 17.8516 7.76367 17.8516C7.77018 17.8516 7.77344 17.8516 7.77344 17.8516C7.8125 17.8906 7.85156 17.9232 7.89062 17.9492C7.92969 17.9753 7.97526 18.0013 8.02734 18.0273C8.06641 18.0404 8.11523 18.0534 8.17383 18.0664C8.23242 18.0794 8.28776 18.0859 8.33984 18.0859C8.39193 18.0859 8.44727 18.0794 8.50586 18.0664C8.56445 18.0534 8.61979 18.0404 8.67188 18.0273H8.65234C8.70443 18.0013 8.75 17.9753 8.78906 17.9492C8.82812 17.9232 8.86719 17.8906 8.90625 17.8516C8.90625 17.8516 8.9095 17.8516 8.91602 17.8516C8.92253 17.8516 8.92578 17.8451 8.92578 17.832L9.86328 16.9141C10.0195 16.7578 10.1986 16.6374 10.4004 16.5527C10.6022 16.4681 10.8138 16.4258 11.0352 16.4258H15.8398C16.0742 16.4258 16.2728 16.3444 16.4355 16.1816C16.5983 16.0189 16.6797 15.8203 16.6797 15.5859V3.08594C16.6797 2.85156 16.5983 2.653 16.4355 2.49023C16.2728 2.32747 16.0742 2.24609 15.8398 2.24609ZM15 14.7461H11.0352C10.6966 14.7461 10.3678 14.7982 10.0488 14.9023C9.72982 15.0065 9.43359 15.1497 9.16016 15.332H9.17969V4.74609C9.17969 4.52474 9.26107 4.33268 9.42383 4.16992C9.58659 4.00716 9.77865 3.92578 10 3.92578H15V14.7461Z" fill="#382A34"/>
</svg>
