<svg width="20" height="20" viewBox="0 0 20 20" fill="none" xmlns="http://www.w3.org/2000/svg">
<path d="M2.5 9.74609H1.67969V16.4258C1.67969 16.8815 1.84245 17.2721 2.16797 17.5977C2.49349 17.9232 2.88411 18.0859 3.33984 18.0859H7.5V9.74609H2.5ZM13.3398 9.74609H9.17969V18.0859H13.3398C13.7956 18.0859 14.1862 17.9232 14.5117 17.5977C14.8372 17.2721 15 16.8815 15 16.4258V9.74609H13.3398ZM14.0039 5.58594C14.056 5.40365 14.0983 5.21159 14.1309 5.00977C14.1634 4.80794 14.1797 4.60286 14.1797 4.39453C14.1797 4.38151 14.1797 4.37175 14.1797 4.36523C14.1797 4.35872 14.1797 4.34896 14.1797 4.33594C14.1797 3.52865 13.8932 2.8418 13.3203 2.27539C12.7474 1.70898 12.0573 1.42578 11.25 1.42578C10.5729 1.42578 10.0033 1.6862 9.54102 2.20703C9.07878 2.72786 8.70443 3.32031 8.41797 3.98438C8.13151 3.35938 7.74414 2.77669 7.25586 2.23633C6.76758 1.69596 6.15885 1.42578 5.42969 1.42578C4.6224 1.42578 3.93229 1.70898 3.35938 2.27539C2.78646 2.8418 2.5 3.52865 2.5 4.33594C2.5 4.58333 2.51628 4.8112 2.54883 5.01953C2.58138 5.22786 2.6237 5.41667 2.67578 5.58594H0V8.92578H7.5V7.24609H9.17969V8.92578H16.6797V5.58594H14.0039ZM4.17969 4.33594C4.17969 3.98438 4.30013 3.68815 4.54102 3.44727C4.7819 3.20638 5.07812 3.08594 5.42969 3.08594C5.79427 3.08594 6.13932 3.34961 6.46484 3.87695C6.79036 4.4043 7.05078 4.97396 7.24609 5.58594H5C4.84375 5.58594 4.66797 5.53385 4.47266 5.42969C4.27734 5.32552 4.17969 4.96094 4.17969 4.33594ZM11.25 3.08594C11.6016 3.08594 11.8978 3.20638 12.1387 3.44727C12.3796 3.68815 12.5 3.98438 12.5 4.33594C12.5 4.96094 12.4023 5.32552 12.207 5.42969C12.0117 5.53385 11.8359 5.58594 11.6797 5.58594H9.60938C9.81771 4.92188 10.0684 4.33919 10.3613 3.83789C10.6543 3.33659 10.9505 3.08594 11.25 3.08594Z" fill="#382A34"/>
</svg>
