<svg width="20" height="20" viewBox="0 0 20 20" fill="none" xmlns="http://www.w3.org/2000/svg">
<path d="M6.44531 9.74609C6.91406 9.74609 7.30794 9.58984 7.62695 9.27734C7.94596 8.96484 8.10547 8.56771 8.10547 8.08594C8.10547 7.60417 7.94596 7.20703 7.62695 6.89453C7.30794 6.58203 6.91406 6.42578 6.44531 6.42578C5.96354 6.42578 5.56315 6.58203 5.24414 6.89453C4.92513 7.20703 4.76562 7.60417 4.76562 8.08594C4.76562 8.56771 4.92513 8.96484 5.24414 9.27734C5.56315 9.58984 5.96354 9.74609 6.44531 9.74609ZM15 3.08594H1.67969C1.21094 3.08594 0.813802 3.23893 0.488281 3.54492C0.16276 3.85091 0 4.21875 0 4.64844V14.8633C0 15.293 0.16276 15.6608 0.488281 15.9668C0.813802 16.2728 1.21094 16.4258 1.67969 16.4258H15C15.4688 16.4258 15.8659 16.2728 16.1914 15.9668C16.5169 15.6608 16.6797 15.293 16.6797 14.8633V4.64844C16.6797 4.21875 16.5169 3.85091 16.1914 3.54492C15.8659 3.23893 15.4688 3.08594 15 3.08594ZM15 14.7461H1.67969V4.74609L15 4.76562V14.7461ZM10 7.24609H13.3398V8.92578H10V7.24609ZM10.8398 10.5859H13.3398V12.2461H10.8398V10.5859ZM9.53125 12.6953C9.53125 12.1224 9.22852 11.5918 8.62305 11.1035C8.01758 10.6152 7.29167 10.3711 6.44531 10.3711C5.58594 10.3711 4.85352 10.6152 4.24805 11.1035C3.64258 11.5918 3.33984 12.1224 3.33984 12.6953V13.0859H9.53125V12.6953Z" fill="#382A34"/>
</svg>
